# xmcd
#
# Track frame offsets:
#	183
#	12110
#	24435
#	38223
#	46343
#	57610
#	74465
#	83848
#	94403
#	107628
#	120338
#	133028
#	148458
#	160413
#
# Disc length: 2296 seconds
#
# Revision: 2
# Processed by: cddbd v1.5.1PL0 Copyright (c) Steve Scherf et al.
# Submitted via: audiograbber 1.83.01
#
DISCID=c508f60e
DTITLE=Willie Nelson - Home is where you re happy
DYEAR=1900
DGENRE=Country
TTITLE0=Is there something on your mind
TTITLE1=I can t find the time
TTITLE2=Home is where you re happy
TTITLE3=Things to remember
TTITLE4=Sufferin in silence
TTITLE5=I let my mind wander
TTITLE6=One stop beyond
TTITLE7=I feel sorry for him
TTITLE8=You ll always have someone
TTITLE9=I just don t understand
TTITLE10=Any ole arms won t do
TTITLE11=Face of a fighter
TTITLE12=I hope so
TTITLE13=End of understanding
EXTD=
EXTT0=
EXTT1=
EXTT2=
EXTT3=
EXTT4=
EXTT5=
EXTT6=
EXTT7=
EXTT8=
EXTT9=
EXTT10=
EXTT11=
EXTT12=
EXTT13=
PLAYORDER=
